G04 #@! TF.FileFunction,Copper,L1,Top,Signal*
%FSLAX46Y46*%
G04 Gerber Fmt 4.6, Leading zero omitted, Abs format (unit mm)*
G04 Created by KiCad (PCBNEW 4.0.6) date 10/21/18 17:35:00*
%MOMM*%
%LPD*%
G01*
G04 APERTURE LIST*
%ADD10C,0.100000*%
%ADD11C,6.400000*%
%ADD12R,2.500000X4.000000*%
%ADD13R,0.800000X0.600000*%
%ADD14C,2.000000*%
%ADD15R,1.700000X1.700000*%
%ADD16O,1.700000X1.700000*%
%ADD17R,0.970000X1.270000*%
%ADD18R,1.100000X4.600000*%
%ADD19R,10.800000X9.400000*%
%ADD20R,5.250000X4.550000*%
%ADD21C,1.500000*%
%ADD22C,1.524000*%
%ADD23C,0.600000*%
%ADD24C,0.500000*%
%ADD25C,0.250000*%
%ADD26C,2.000000*%
%ADD27C,1.000000*%
%ADD28C,0.600000*%
%ADD29C,0.700000*%
%ADD30C,0.254000*%
G04 APERTURE END LIST*
D10*
D11*
X116000000Y-96000000D03*
X84000000Y-96000000D03*
X116000000Y-24000000D03*
D12*
X89000000Y-80000000D03*
X89000000Y-86100000D03*
X111000000Y-80000000D03*
X111000000Y-86100000D03*
D13*
X97050000Y-66850000D03*
X97050000Y-68550000D03*
X99000000Y-66850000D03*
X99000000Y-68550000D03*
D14*
X116000000Y-40000000D03*
X116000000Y-36500000D03*
X116000000Y-33000000D03*
D15*
X82000000Y-42540000D03*
D16*
X82000000Y-40000000D03*
X82000000Y-37460000D03*
X82000000Y-34920000D03*
X82000000Y-32380000D03*
D15*
X94050000Y-68090000D03*
D16*
X94050000Y-65550000D03*
X94050000Y-63010000D03*
X94050000Y-60470000D03*
D15*
X118000000Y-50000000D03*
D16*
X118000000Y-52540000D03*
X118000000Y-55080000D03*
X118000000Y-57620000D03*
X118000000Y-60160000D03*
X118000000Y-62700000D03*
X118000000Y-65240000D03*
X118000000Y-67780000D03*
X118000000Y-70320000D03*
X118000000Y-72860000D03*
X118000000Y-75400000D03*
X118000000Y-77940000D03*
X118000000Y-80480000D03*
X118000000Y-83020000D03*
X118000000Y-85560000D03*
X118000000Y-88100000D03*
D15*
X82000000Y-50000000D03*
D16*
X82000000Y-52540000D03*
X82000000Y-55080000D03*
X82000000Y-57620000D03*
X82000000Y-60160000D03*
X82000000Y-62700000D03*
X82000000Y-65240000D03*
X82000000Y-67780000D03*
X82000000Y-70320000D03*
X82000000Y-72860000D03*
X82000000Y-75400000D03*
X82000000Y-77940000D03*
X82000000Y-80480000D03*
X82000000Y-83020000D03*
X82000000Y-85560000D03*
X82000000Y-88100000D03*
D17*
X108720000Y-31000000D03*
X110000000Y-31000000D03*
D18*
X102080000Y-78275000D03*
X97000000Y-78275000D03*
D19*
X99540000Y-87425000D03*
D20*
X96765000Y-89850000D03*
X102315000Y-85000000D03*
X102315000Y-89850000D03*
X96765000Y-85000000D03*
D21*
X90300000Y-21380000D03*
X90300000Y-23920000D03*
X90300000Y-26460000D03*
X90300000Y-29000000D03*
X90300000Y-31540000D03*
X90300000Y-34080000D03*
D22*
X90300000Y-36620000D03*
X97920000Y-36620000D03*
X90300000Y-39160000D03*
X97920000Y-39160000D03*
X90300000Y-41700000D03*
X97920000Y-41700000D03*
X90300000Y-44240000D03*
X97920000Y-44240000D03*
X90300000Y-46780000D03*
X97920000Y-46780000D03*
X90300000Y-49320000D03*
X97920000Y-49320000D03*
X90300000Y-51860000D03*
X97920000Y-51860000D03*
X90300000Y-54400000D03*
X92840000Y-54400000D03*
X95380000Y-54400000D03*
X97920000Y-54400000D03*
X100460000Y-54400000D03*
X103000000Y-54400000D03*
X105540000Y-54400000D03*
X100460000Y-51860000D03*
X105540000Y-51860000D03*
X100460000Y-49320000D03*
X105540000Y-49320000D03*
X100460000Y-46780000D03*
X105540000Y-46780000D03*
X100460000Y-44240000D03*
X105540000Y-44240000D03*
X100460000Y-41700000D03*
X105540000Y-41700000D03*
X100460000Y-39160000D03*
X105540000Y-39160000D03*
X100460000Y-36620000D03*
X105540000Y-36620000D03*
X103000000Y-34080000D03*
X105540000Y-34080000D03*
X103000000Y-31540000D03*
X105540000Y-31540000D03*
X103000000Y-29000000D03*
X105540000Y-29000000D03*
X105540000Y-26460000D03*
X105540000Y-23920000D03*
X105540000Y-21380000D03*
D11*
X84000000Y-24000000D03*
D15*
X103460000Y-64100000D03*
D16*
X106000000Y-64100000D03*
X108540000Y-64100000D03*
D13*
X97000000Y-60050000D03*
X97000000Y-61750000D03*
X99000000Y-60050000D03*
X99000000Y-61750000D03*
D23*
X105400000Y-59200000D03*
X94000000Y-90000000D03*
X105000000Y-85000000D03*
X105000000Y-86000000D03*
X105000000Y-87000000D03*
X105000000Y-88000000D03*
X105000000Y-89000000D03*
X105000000Y-90000000D03*
X105000000Y-91000000D03*
X105000000Y-92000000D03*
X104000000Y-92000000D03*
X103000000Y-92000000D03*
X102000000Y-92000000D03*
X101000000Y-92000000D03*
X100000000Y-92000000D03*
X99000000Y-92000000D03*
X98000000Y-92000000D03*
X97000000Y-92000000D03*
X96000000Y-92000000D03*
X95000000Y-92000000D03*
X94000000Y-92000000D03*
X94000000Y-91000000D03*
X94000000Y-89000000D03*
X94000000Y-88000000D03*
X94000000Y-87000000D03*
X94000000Y-86000000D03*
X94000000Y-85000000D03*
X112100000Y-38850000D03*
X96200000Y-61800000D03*
X98500000Y-64100000D03*
X113400000Y-83000000D03*
X104290000Y-32750000D03*
D24*
X105400000Y-59200000D02*
X110500000Y-54100000D01*
X110500000Y-54100000D02*
X110500000Y-38700000D01*
X107300000Y-23140000D02*
X106301999Y-22141999D01*
X110500000Y-38700000D02*
X107300000Y-35500000D01*
X107300000Y-35500000D02*
X107300000Y-23140000D01*
X106301999Y-22141999D02*
X105540000Y-21380000D01*
D25*
X97000000Y-60050000D02*
X94470000Y-60050000D01*
X94470000Y-60050000D02*
X94050000Y-60470000D01*
X99000000Y-60050000D02*
X97000000Y-60050000D01*
D24*
X92750000Y-71800000D02*
X89000000Y-75550000D01*
X89000000Y-75550000D02*
X89000000Y-80000000D01*
X92750000Y-71475000D02*
X97000000Y-75725000D01*
X92050000Y-70775000D02*
X92750000Y-71475000D01*
X92750000Y-71475000D02*
X92750000Y-71800000D01*
X88900000Y-79900000D02*
X89000000Y-80000000D01*
X97000000Y-75725000D02*
X97000000Y-78275000D01*
X94050000Y-60470000D02*
X92050000Y-62470000D01*
X92050000Y-62470000D02*
X92050000Y-70775000D01*
X94050000Y-60470000D02*
X94050000Y-61270998D01*
X89000000Y-80000000D02*
X89000000Y-79250000D01*
X89000000Y-79250000D02*
X89975000Y-78275000D01*
D25*
X90300000Y-21380000D02*
X88850000Y-22830000D01*
X88850000Y-22830000D02*
X88850000Y-25163590D01*
X84000000Y-33300000D02*
X84000000Y-41640000D01*
X88850000Y-25163590D02*
X88200000Y-25813590D01*
X83100000Y-42540000D02*
X82000000Y-42540000D01*
X88200000Y-25813590D02*
X88200000Y-29100000D01*
X88200000Y-29100000D02*
X84000000Y-33300000D01*
X84000000Y-41640000D02*
X83100000Y-42540000D01*
D26*
X102315000Y-89850000D02*
X106350000Y-89850000D01*
X93890000Y-89850000D02*
X91750000Y-89850000D01*
X96765000Y-89850000D02*
X93890000Y-89850000D01*
X96800000Y-92410000D02*
X96800000Y-95150000D01*
X96765000Y-89850000D02*
X96765000Y-92375000D01*
X96765000Y-92375000D02*
X96800000Y-92410000D01*
X102350000Y-92410000D02*
X102350000Y-93850000D01*
X102315000Y-92375000D02*
X102350000Y-92410000D01*
X102315000Y-89850000D02*
X102315000Y-92375000D01*
D25*
X105000000Y-91000000D02*
X105000000Y-92000000D01*
X105000000Y-89000000D02*
X105000000Y-90000000D01*
X105000000Y-87000000D02*
X105000000Y-88000000D01*
X95000000Y-92000000D02*
X96000000Y-92000000D01*
X94000000Y-91000000D02*
X94000000Y-92000000D01*
X94000000Y-89000000D02*
X94000000Y-90000000D01*
X94000000Y-88000000D02*
X94000000Y-87000000D01*
X94000000Y-85000000D02*
X94000000Y-86000000D01*
X105000000Y-87000000D02*
X105000000Y-86000000D01*
X105000000Y-89000000D02*
X105000000Y-88000000D01*
X105000000Y-91000000D02*
X105000000Y-90000000D01*
X104000000Y-92000000D02*
X105000000Y-92000000D01*
X102000000Y-92000000D02*
X103000000Y-92000000D01*
X100000000Y-92000000D02*
X101000000Y-92000000D01*
X98000000Y-92000000D02*
X99000000Y-92000000D01*
X96000000Y-92000000D02*
X97000000Y-92000000D01*
X94000000Y-92000000D02*
X95000000Y-92000000D01*
X94000000Y-90000000D02*
X94000000Y-91000000D01*
X94000000Y-88000000D02*
X94000000Y-89000000D01*
X94000000Y-86000000D02*
X94000000Y-87000000D01*
X96765000Y-85000000D02*
X94000000Y-85000000D01*
X103460000Y-64100000D02*
X103460000Y-65200000D01*
X103460000Y-65200000D02*
X100110000Y-68550000D01*
X100110000Y-68550000D02*
X99650000Y-68550000D01*
X99650000Y-68550000D02*
X99000000Y-68550000D01*
X99250000Y-68300000D02*
X99000000Y-68550000D01*
D24*
X99540000Y-87425000D02*
X99540000Y-69090000D01*
X99540000Y-69090000D02*
X99000000Y-68550000D01*
X92840000Y-23920000D02*
X95650000Y-23920000D01*
X95650000Y-23920000D02*
X105540000Y-23920000D01*
X90300000Y-21380000D02*
X92840000Y-23920000D01*
D25*
X97050000Y-68550000D02*
X99000000Y-68550000D01*
X97050000Y-68550000D02*
X94510000Y-68550000D01*
X94510000Y-68550000D02*
X94050000Y-68090000D01*
D27*
X115000000Y-86000000D02*
X115440000Y-85560000D01*
X115440000Y-85560000D02*
X118000000Y-85560000D01*
X89000000Y-86100000D02*
X86700000Y-86100000D01*
X86700000Y-86100000D02*
X84700000Y-88100000D01*
X84700000Y-88100000D02*
X82000000Y-88100000D01*
D25*
X88460000Y-85560000D02*
X89000000Y-86100000D01*
X95665000Y-86100000D02*
X96765000Y-85000000D01*
D27*
X115000000Y-86000000D02*
X115000000Y-87000000D01*
X115000000Y-80000000D02*
X115000000Y-86000000D01*
X114900000Y-86100000D02*
X111000000Y-86100000D01*
X115000000Y-86000000D02*
X114900000Y-86100000D01*
X115000000Y-87000000D02*
X115000000Y-89000000D01*
X115000000Y-89000000D02*
X114000000Y-90000000D01*
X102465000Y-90000000D02*
X102315000Y-89850000D01*
X115000000Y-41000000D02*
X115000000Y-80000000D01*
X116000000Y-40000000D02*
X115000000Y-41000000D01*
D25*
X102080000Y-78275000D02*
X102080000Y-76525000D01*
X102080000Y-76525000D02*
X102150000Y-76455000D01*
X102150000Y-76455000D02*
X102150000Y-74250000D01*
X102150000Y-74250000D02*
X102550000Y-73850000D01*
X102550000Y-73850000D02*
X111750000Y-73850000D01*
X111750000Y-73850000D02*
X111800000Y-73900000D01*
X111800000Y-73900000D02*
X111800000Y-79200000D01*
X111000000Y-80000000D02*
X111800000Y-79200000D01*
D24*
X111800001Y-39149999D02*
X112100000Y-38850000D01*
X111800000Y-79200000D02*
X111800001Y-39149999D01*
D28*
X118000000Y-50000000D02*
X118000000Y-38500000D01*
X118000000Y-38500000D02*
X116000000Y-36500000D01*
D27*
X114500000Y-36500000D02*
X110000000Y-32000000D01*
X110000000Y-32000000D02*
X110000000Y-31000000D01*
X116000000Y-36500000D02*
X114500000Y-36500000D01*
D25*
X97000000Y-61750000D02*
X96250000Y-61750000D01*
X96250000Y-61750000D02*
X96200000Y-61800000D01*
X100460000Y-46780000D02*
X104300000Y-50620000D01*
X99400000Y-64100000D02*
X98924264Y-64100000D01*
X104300000Y-50620000D02*
X104300000Y-57000000D01*
X98924264Y-64100000D02*
X98500000Y-64100000D01*
X104300000Y-57000000D02*
X100750011Y-60549989D01*
X100750011Y-60549989D02*
X100750011Y-62749989D01*
X100750011Y-62749989D02*
X99400000Y-64100000D01*
X97050000Y-66850000D02*
X95350000Y-66850000D01*
X95350000Y-66850000D02*
X94050000Y-65550000D01*
X99600000Y-63000000D02*
X99000000Y-63000000D01*
X99000000Y-63000000D02*
X95820000Y-63000000D01*
X99000000Y-61750000D02*
X99000000Y-63000000D01*
X100300000Y-58800000D02*
X100300000Y-61700000D01*
X100300000Y-61700000D02*
X100300000Y-62300000D01*
X100460000Y-49320000D02*
X101700000Y-50560000D01*
X101700000Y-57400000D02*
X100300000Y-58800000D01*
X101700000Y-50560000D02*
X101700000Y-57400000D01*
X100300000Y-62300000D02*
X99600000Y-63000000D01*
X95820000Y-63000000D02*
X95810000Y-63010000D01*
X99000000Y-66850000D02*
X99000000Y-66200000D01*
X99000000Y-66200000D02*
X95810000Y-63010000D01*
X95810000Y-63010000D02*
X95252081Y-63010000D01*
X95252081Y-63010000D02*
X94050000Y-63010000D01*
D27*
X108720000Y-31000000D02*
X108720000Y-33220000D01*
X108720000Y-33220000D02*
X113400000Y-37900000D01*
X113400000Y-37900000D02*
X113400000Y-83000000D01*
D29*
X115000001Y-32000001D02*
X116000000Y-33000000D01*
X112000000Y-29000000D02*
X115000001Y-32000001D01*
X109385000Y-29000000D02*
X112000000Y-29000000D01*
X108720000Y-29665000D02*
X109385000Y-29000000D01*
X108720000Y-31000000D02*
X108720000Y-29665000D01*
D25*
X104290000Y-32750000D02*
X104290000Y-30250000D01*
X104290000Y-30250000D02*
X105540000Y-29000000D01*
X82000000Y-50000000D02*
X83100000Y-50000000D01*
X104230000Y-25150000D02*
X105540000Y-26460000D01*
X83100000Y-50000000D02*
X84500000Y-48600000D01*
X84500000Y-48600000D02*
X84500000Y-33600000D01*
X84500000Y-33600000D02*
X88700000Y-29400000D01*
X88700000Y-29400000D02*
X88700000Y-25950000D01*
X88700000Y-25950000D02*
X89500000Y-25150000D01*
X89500000Y-25150000D02*
X104230000Y-25150000D01*
X89538001Y-42461999D02*
X90300000Y-41700000D01*
X87299956Y-44700044D02*
X89538001Y-42461999D01*
X86949956Y-60290044D02*
X86949956Y-52654400D01*
X86949956Y-52654400D02*
X87299956Y-52304401D01*
X82000000Y-65240000D02*
X86949956Y-60290044D01*
X87299956Y-52304401D02*
X87299956Y-44700044D01*
X89538001Y-45001999D02*
X90300000Y-44240000D01*
X87749967Y-46790033D02*
X89538001Y-45001999D01*
X87399967Y-52840800D02*
X87749967Y-52490801D01*
X87399967Y-60681567D02*
X87399967Y-52840800D01*
X83549934Y-64531600D02*
X87399967Y-60681567D01*
X83549934Y-66230066D02*
X83549934Y-64531600D01*
X82000000Y-67780000D02*
X83549934Y-66230066D01*
X87749967Y-52490801D02*
X87749967Y-46790033D01*
X83999945Y-68320055D02*
X82849999Y-69470001D01*
X83999945Y-64718000D02*
X83999945Y-68320055D01*
X91570000Y-48050000D02*
X89000000Y-48050000D01*
X89000000Y-48050000D02*
X88199978Y-48850022D01*
X88199978Y-52677201D02*
X88113589Y-52763589D01*
X97920000Y-41700000D02*
X91570000Y-48050000D01*
X82849999Y-69470001D02*
X82000000Y-70320000D01*
X87849978Y-53027200D02*
X87849978Y-60867967D01*
X88199978Y-48850022D02*
X88199978Y-52677201D01*
X87849978Y-60867967D02*
X83999945Y-64718000D01*
X88113589Y-52763589D02*
X87849978Y-53027200D01*
X91510000Y-50650000D02*
X97158001Y-45001999D01*
X97158001Y-45001999D02*
X97920000Y-44240000D01*
X88699967Y-51350033D02*
X89400000Y-50650000D01*
X89400000Y-50650000D02*
X91510000Y-50650000D01*
X88699967Y-52813622D02*
X88699967Y-51350033D01*
X88299989Y-53213600D02*
X88699967Y-52813622D01*
X84449956Y-64904400D02*
X88299989Y-61054367D01*
X88299989Y-61054367D02*
X88299989Y-53213600D01*
X84449956Y-70410044D02*
X84449956Y-64904400D01*
X82000000Y-72860000D02*
X84449956Y-70410044D01*
X89000000Y-53150000D02*
X91463589Y-53150000D01*
X82000000Y-75400000D02*
X84899967Y-72500033D01*
X88750000Y-61240767D02*
X88750000Y-53400000D01*
X97158001Y-47541999D02*
X97920000Y-46780000D01*
X97071590Y-47541999D02*
X97158001Y-47541999D01*
X91463589Y-53150000D02*
X97071590Y-47541999D01*
X84899967Y-65090800D02*
X88750000Y-61240767D01*
X84899967Y-72500033D02*
X84899967Y-65090800D01*
X88750000Y-53400000D02*
X89000000Y-53150000D01*
X82000000Y-77940000D02*
X85349978Y-74590022D01*
X85349978Y-74590022D02*
X85349978Y-65277200D01*
X85349978Y-65277200D02*
X89249989Y-61377189D01*
X89249989Y-61377189D02*
X89249989Y-59813600D01*
X89249989Y-59813600D02*
X91550000Y-57513589D01*
X91550000Y-57513589D02*
X91550000Y-53700000D01*
X91550000Y-53700000D02*
X95930000Y-49320000D01*
X95930000Y-49320000D02*
X96842370Y-49320000D01*
X96842370Y-49320000D02*
X97920000Y-49320000D01*
X96842370Y-51860000D02*
X97920000Y-51860000D01*
X94150000Y-53600000D02*
X95890000Y-51860000D01*
X95890000Y-51860000D02*
X96842370Y-51860000D01*
X89700000Y-60000000D02*
X94150000Y-55550000D01*
X85799989Y-65463600D02*
X89700000Y-61563589D01*
X85799989Y-76663601D02*
X85799989Y-65463600D01*
X82849999Y-79613591D02*
X85799989Y-76663601D01*
X82000000Y-80480000D02*
X82849999Y-79630001D01*
X89700000Y-61563589D02*
X89700000Y-60000000D01*
X94150000Y-55550000D02*
X94150000Y-53600000D01*
X82849999Y-79630001D02*
X82849999Y-79613591D01*
X97150000Y-53150000D02*
X99170000Y-53150000D01*
X86250000Y-76850000D02*
X86250000Y-65650000D01*
X84150000Y-82050000D02*
X84150000Y-78950000D01*
X83180000Y-83020000D02*
X84150000Y-82050000D01*
X82000000Y-83020000D02*
X83180000Y-83020000D01*
X96650000Y-55250000D02*
X96650000Y-53650000D01*
X84150000Y-78950000D02*
X86250000Y-76850000D01*
X86250000Y-65650000D02*
X96650000Y-55250000D01*
X96650000Y-53650000D02*
X97150000Y-53150000D01*
X99170000Y-53150000D02*
X100460000Y-51860000D01*
X89550001Y-34829999D02*
X90300000Y-34080000D01*
X85899956Y-38480044D02*
X89550001Y-34829999D01*
X85899956Y-51114947D02*
X85899956Y-38480044D01*
X85599923Y-51414979D02*
X85899956Y-51114947D01*
X85599923Y-54020077D02*
X85599923Y-51414979D01*
X82000000Y-57620000D02*
X85599923Y-54020077D01*
X83202081Y-60160000D02*
X82000000Y-60160000D01*
X83790000Y-60160000D02*
X83202081Y-60160000D01*
X86049934Y-52281600D02*
X86049934Y-57900066D01*
X86349967Y-51981567D02*
X86049934Y-52281600D01*
X86349967Y-40570033D02*
X86349967Y-51981567D01*
X86049934Y-57900066D02*
X83790000Y-60160000D01*
X90300000Y-36620000D02*
X86349967Y-40570033D01*
X83800000Y-62700000D02*
X83202081Y-62700000D01*
X86499945Y-60000055D02*
X83800000Y-62700000D01*
X86499945Y-52468000D02*
X86499945Y-60000055D01*
X86799978Y-52167967D02*
X86499945Y-52468000D01*
X90300000Y-39160000D02*
X86799978Y-42660022D01*
X83202081Y-62700000D02*
X82000000Y-62700000D01*
X86799978Y-42660022D02*
X86799978Y-52167967D01*
X108540000Y-64100000D02*
X107690001Y-63250001D01*
X104650000Y-59950000D02*
X104650000Y-58550000D01*
X101600000Y-40400000D02*
X96680000Y-40400000D01*
X107690001Y-63250001D02*
X107690001Y-62990001D01*
X107690001Y-62990001D02*
X104650000Y-59950000D01*
X107675000Y-55525000D02*
X107675000Y-46951777D01*
X104000000Y-44600000D02*
X104000000Y-42800000D01*
X104650000Y-58550000D02*
X107675000Y-55525000D01*
X107675000Y-46951777D02*
X106223223Y-45500000D01*
X106223223Y-45500000D02*
X104900000Y-45500000D01*
X104900000Y-45500000D02*
X104000000Y-44600000D01*
X104000000Y-42800000D02*
X101600000Y-40400000D01*
X96680000Y-40400000D02*
X91061999Y-46018001D01*
X91061999Y-46018001D02*
X90300000Y-46780000D01*
X108500000Y-63800000D02*
X108480000Y-63820000D01*
X105150001Y-63250001D02*
X106000000Y-64100000D01*
X103900000Y-58250000D02*
X103900000Y-62000000D01*
X106350000Y-48050000D02*
X107224989Y-48924989D01*
X107224989Y-54925011D02*
X103900000Y-58250000D01*
X107224989Y-48924989D02*
X107224989Y-54925011D01*
X100460000Y-44240000D02*
X104270000Y-48050000D01*
X104270000Y-48050000D02*
X106350000Y-48050000D01*
X103900000Y-62000000D02*
X105150001Y-63250001D01*
X84999934Y-34300066D02*
X84999934Y-50742147D01*
X83202081Y-52540000D02*
X82000000Y-52540000D01*
X90300000Y-29000000D02*
X84999934Y-34300066D01*
X84999934Y-50742147D02*
X83202081Y-52540000D01*
X85449945Y-50928547D02*
X85100011Y-51278480D01*
X90300000Y-31540000D02*
X85449945Y-36390055D01*
X83570000Y-55080000D02*
X83202081Y-55080000D01*
X83202081Y-55080000D02*
X82000000Y-55080000D01*
X85100011Y-53549989D02*
X83570000Y-55080000D01*
X85100011Y-51278480D02*
X85100011Y-53549989D01*
X85449945Y-36390055D02*
X85449945Y-50928547D01*
D30*
G36*
X95802560Y-80575000D02*
X95846838Y-80810317D01*
X95872759Y-80850599D01*
X95873000Y-81000205D01*
X95883086Y-81049599D01*
X95911594Y-81091177D01*
X95954032Y-81118389D01*
X96000000Y-81127000D01*
X96133083Y-81127000D01*
X96198110Y-81171431D01*
X96450000Y-81222440D01*
X97550000Y-81222440D01*
X97785317Y-81178162D01*
X97864825Y-81127000D01*
X101213083Y-81127000D01*
X101278110Y-81171431D01*
X101530000Y-81222440D01*
X102630000Y-81222440D01*
X102865317Y-81178162D01*
X102944825Y-81127000D01*
X103000000Y-81127000D01*
X103049410Y-81116994D01*
X103091035Y-81088553D01*
X103118315Y-81046159D01*
X103127000Y-81000000D01*
X103127000Y-80972412D01*
X103226431Y-80826890D01*
X103277440Y-80575000D01*
X103277440Y-76127000D01*
X108947394Y-76127000D01*
X110172954Y-77352560D01*
X109750000Y-77352560D01*
X109514683Y-77396838D01*
X109298559Y-77535910D01*
X109153569Y-77748110D01*
X109102560Y-78000000D01*
X109102560Y-82000000D01*
X109146838Y-82235317D01*
X109285910Y-82451441D01*
X109498110Y-82596431D01*
X109750000Y-82647440D01*
X112250000Y-82647440D01*
X112265000Y-82644618D01*
X112265000Y-83000000D01*
X112351397Y-83434346D01*
X112371879Y-83465000D01*
X111285750Y-83465000D01*
X111127000Y-83623750D01*
X111127000Y-85973000D01*
X112726250Y-85973000D01*
X112885000Y-85814250D01*
X112885000Y-83994712D01*
X112965654Y-84048603D01*
X113400000Y-84135000D01*
X113834346Y-84048603D01*
X114202566Y-83802566D01*
X114448603Y-83434346D01*
X114535000Y-83000000D01*
X114535000Y-81714606D01*
X115873000Y-83052606D01*
X115873000Y-92164888D01*
X115240518Y-92164336D01*
X113830485Y-92746950D01*
X112750741Y-93824811D01*
X112165667Y-95233825D01*
X112164336Y-96759482D01*
X112746950Y-98169515D01*
X113449208Y-98873000D01*
X86550229Y-98873000D01*
X87249259Y-98175189D01*
X87834333Y-96766175D01*
X87835664Y-95240518D01*
X87253050Y-93830485D01*
X86175189Y-92750741D01*
X84766175Y-92165667D01*
X84127000Y-92165109D01*
X84127000Y-86385750D01*
X87115000Y-86385750D01*
X87115000Y-88226309D01*
X87211673Y-88459698D01*
X87390301Y-88638327D01*
X87623690Y-88735000D01*
X88714250Y-88735000D01*
X88873000Y-88576250D01*
X88873000Y-86227000D01*
X89127000Y-86227000D01*
X89127000Y-88576250D01*
X89285750Y-88735000D01*
X90376310Y-88735000D01*
X90609699Y-88638327D01*
X90788327Y-88459698D01*
X90885000Y-88226309D01*
X90885000Y-86385750D01*
X90726250Y-86227000D01*
X89127000Y-86227000D01*
X88873000Y-86227000D01*
X87273750Y-86227000D01*
X87115000Y-86385750D01*
X84127000Y-86385750D01*
X84127000Y-83973691D01*
X87115000Y-83973691D01*
X87115000Y-85814250D01*
X87273750Y-85973000D01*
X88873000Y-85973000D01*
X88873000Y-83623750D01*
X89127000Y-83623750D01*
X89127000Y-85973000D01*
X90726250Y-85973000D01*
X90885000Y-85814250D01*
X90885000Y-83973691D01*
X90788327Y-83740302D01*
X90609699Y-83561673D01*
X90376310Y-83465000D01*
X89285750Y-83465000D01*
X89127000Y-83623750D01*
X88873000Y-83623750D01*
X88714250Y-83465000D01*
X87623690Y-83465000D01*
X87390301Y-83561673D01*
X87211673Y-83740302D01*
X87115000Y-83973691D01*
X84127000Y-83973691D01*
X84127000Y-83147802D01*
X84687401Y-82587401D01*
X84852148Y-82340839D01*
X84855471Y-82324135D01*
X87102560Y-80077046D01*
X87102560Y-82000000D01*
X87146838Y-82235317D01*
X87285910Y-82451441D01*
X87498110Y-82596431D01*
X87750000Y-82647440D01*
X90250000Y-82647440D01*
X90485317Y-82603162D01*
X90492265Y-82598691D01*
X93505000Y-82598691D01*
X93505000Y-87401309D01*
X93514813Y-87425000D01*
X93505000Y-87448691D01*
X93505000Y-92251309D01*
X93601673Y-92484698D01*
X93780301Y-92663327D01*
X94013690Y-92760000D01*
X99516310Y-92760000D01*
X99540000Y-92750187D01*
X99563690Y-92760000D01*
X105066310Y-92760000D01*
X105299699Y-92663327D01*
X105478327Y-92484698D01*
X105575000Y-92251309D01*
X105575000Y-87448691D01*
X105565187Y-87425000D01*
X105575000Y-87401309D01*
X105575000Y-86385750D01*
X109115000Y-86385750D01*
X109115000Y-88226309D01*
X109211673Y-88459698D01*
X109390301Y-88638327D01*
X109623690Y-88735000D01*
X110714250Y-88735000D01*
X110873000Y-88576250D01*
X110873000Y-86227000D01*
X111127000Y-86227000D01*
X111127000Y-88576250D01*
X111285750Y-88735000D01*
X112376310Y-88735000D01*
X112609699Y-88638327D01*
X112788327Y-88459698D01*
X112885000Y-88226309D01*
X112885000Y-86385750D01*
X112726250Y-86227000D01*
X111127000Y-86227000D01*
X110873000Y-86227000D01*
X109273750Y-86227000D01*
X109115000Y-86385750D01*
X105575000Y-86385750D01*
X105575000Y-83973691D01*
X109115000Y-83973691D01*
X109115000Y-85814250D01*
X109273750Y-85973000D01*
X110873000Y-85973000D01*
X110873000Y-83623750D01*
X110714250Y-83465000D01*
X109623690Y-83465000D01*
X109390301Y-83561673D01*
X109211673Y-83740302D01*
X109115000Y-83973691D01*
X105575000Y-83973691D01*
X105575000Y-82598691D01*
X105478327Y-82365302D01*
X105299699Y-82186673D01*
X105066310Y-82090000D01*
X99563690Y-82090000D01*
X99540000Y-82099813D01*
X99516310Y-82090000D01*
X94013690Y-82090000D01*
X93780301Y-82186673D01*
X93601673Y-82365302D01*
X93505000Y-82598691D01*
X90492265Y-82598691D01*
X90701441Y-82464090D01*
X90846431Y-82251890D01*
X90897440Y-82000000D01*
X90897440Y-78000000D01*
X90853162Y-77764683D01*
X90714090Y-77548559D01*
X90501890Y-77403569D01*
X90250000Y-77352560D01*
X89885000Y-77352560D01*
X89885000Y-77294606D01*
X91052606Y-76127000D01*
X95802560Y-76127000D01*
X95802560Y-80575000D01*
X95802560Y-80575000D01*
G37*
X95802560Y-80575000D02*
X95846838Y-80810317D01*
X95872759Y-80850599D01*
X95873000Y-81000205D01*
X95883086Y-81049599D01*
X95911594Y-81091177D01*
X95954032Y-81118389D01*
X96000000Y-81127000D01*
X96133083Y-81127000D01*
X96198110Y-81171431D01*
X96450000Y-81222440D01*
X97550000Y-81222440D01*
X97785317Y-81178162D01*
X97864825Y-81127000D01*
X101213083Y-81127000D01*
X101278110Y-81171431D01*
X101530000Y-81222440D01*
X102630000Y-81222440D01*
X102865317Y-81178162D01*
X102944825Y-81127000D01*
X103000000Y-81127000D01*
X103049410Y-81116994D01*
X103091035Y-81088553D01*
X103118315Y-81046159D01*
X103127000Y-81000000D01*
X103127000Y-80972412D01*
X103226431Y-80826890D01*
X103277440Y-80575000D01*
X103277440Y-76127000D01*
X108947394Y-76127000D01*
X110172954Y-77352560D01*
X109750000Y-77352560D01*
X109514683Y-77396838D01*
X109298559Y-77535910D01*
X109153569Y-77748110D01*
X109102560Y-78000000D01*
X109102560Y-82000000D01*
X109146838Y-82235317D01*
X109285910Y-82451441D01*
X109498110Y-82596431D01*
X109750000Y-82647440D01*
X112250000Y-82647440D01*
X112265000Y-82644618D01*
X112265000Y-83000000D01*
X112351397Y-83434346D01*
X112371879Y-83465000D01*
X111285750Y-83465000D01*
X111127000Y-83623750D01*
X111127000Y-85973000D01*
X112726250Y-85973000D01*
X112885000Y-85814250D01*
X112885000Y-83994712D01*
X112965654Y-84048603D01*
X113400000Y-84135000D01*
X113834346Y-84048603D01*
X114202566Y-83802566D01*
X114448603Y-83434346D01*
X114535000Y-83000000D01*
X114535000Y-81714606D01*
X115873000Y-83052606D01*
X115873000Y-92164888D01*
X115240518Y-92164336D01*
X113830485Y-92746950D01*
X112750741Y-93824811D01*
X112165667Y-95233825D01*
X112164336Y-96759482D01*
X112746950Y-98169515D01*
X113449208Y-98873000D01*
X86550229Y-98873000D01*
X87249259Y-98175189D01*
X87834333Y-96766175D01*
X87835664Y-95240518D01*
X87253050Y-93830485D01*
X86175189Y-92750741D01*
X84766175Y-92165667D01*
X84127000Y-92165109D01*
X84127000Y-86385750D01*
X87115000Y-86385750D01*
X87115000Y-88226309D01*
X87211673Y-88459698D01*
X87390301Y-88638327D01*
X87623690Y-88735000D01*
X88714250Y-88735000D01*
X88873000Y-88576250D01*
X88873000Y-86227000D01*
X89127000Y-86227000D01*
X89127000Y-88576250D01*
X89285750Y-88735000D01*
X90376310Y-88735000D01*
X90609699Y-88638327D01*
X90788327Y-88459698D01*
X90885000Y-88226309D01*
X90885000Y-86385750D01*
X90726250Y-86227000D01*
X89127000Y-86227000D01*
X88873000Y-86227000D01*
X87273750Y-86227000D01*
X87115000Y-86385750D01*
X84127000Y-86385750D01*
X84127000Y-83973691D01*
X87115000Y-83973691D01*
X87115000Y-85814250D01*
X87273750Y-85973000D01*
X88873000Y-85973000D01*
X88873000Y-83623750D01*
X89127000Y-83623750D01*
X89127000Y-85973000D01*
X90726250Y-85973000D01*
X90885000Y-85814250D01*
X90885000Y-83973691D01*
X90788327Y-83740302D01*
X90609699Y-83561673D01*
X90376310Y-83465000D01*
X89285750Y-83465000D01*
X89127000Y-83623750D01*
X88873000Y-83623750D01*
X88714250Y-83465000D01*
X87623690Y-83465000D01*
X87390301Y-83561673D01*
X87211673Y-83740302D01*
X87115000Y-83973691D01*
X84127000Y-83973691D01*
X84127000Y-83147802D01*
X84687401Y-82587401D01*
X84852148Y-82340839D01*
X84855471Y-82324135D01*
X87102560Y-80077046D01*
X87102560Y-82000000D01*
X87146838Y-82235317D01*
X87285910Y-82451441D01*
X87498110Y-82596431D01*
X87750000Y-82647440D01*
X90250000Y-82647440D01*
X90485317Y-82603162D01*
X90492265Y-82598691D01*
X93505000Y-82598691D01*
X93505000Y-87401309D01*
X93514813Y-87425000D01*
X93505000Y-87448691D01*
X93505000Y-92251309D01*
X93601673Y-92484698D01*
X93780301Y-92663327D01*
X94013690Y-92760000D01*
X99516310Y-92760000D01*
X99540000Y-92750187D01*
X99563690Y-92760000D01*
X105066310Y-92760000D01*
X105299699Y-92663327D01*
X105478327Y-92484698D01*
X105575000Y-92251309D01*
X105575000Y-87448691D01*
X105565187Y-87425000D01*
X105575000Y-87401309D01*
X105575000Y-86385750D01*
X109115000Y-86385750D01*
X109115000Y-88226309D01*
X109211673Y-88459698D01*
X109390301Y-88638327D01*
X109623690Y-88735000D01*
X110714250Y-88735000D01*
X110873000Y-88576250D01*
X110873000Y-86227000D01*
X111127000Y-86227000D01*
X111127000Y-88576250D01*
X111285750Y-88735000D01*
X112376310Y-88735000D01*
X112609699Y-88638327D01*
X112788327Y-88459698D01*
X112885000Y-88226309D01*
X112885000Y-86385750D01*
X112726250Y-86227000D01*
X111127000Y-86227000D01*
X110873000Y-86227000D01*
X109273750Y-86227000D01*
X109115000Y-86385750D01*
X105575000Y-86385750D01*
X105575000Y-83973691D01*
X109115000Y-83973691D01*
X109115000Y-85814250D01*
X109273750Y-85973000D01*
X110873000Y-85973000D01*
X110873000Y-83623750D01*
X110714250Y-83465000D01*
X109623690Y-83465000D01*
X109390301Y-83561673D01*
X109211673Y-83740302D01*
X109115000Y-83973691D01*
X105575000Y-83973691D01*
X105575000Y-82598691D01*
X105478327Y-82365302D01*
X105299699Y-82186673D01*
X105066310Y-82090000D01*
X99563690Y-82090000D01*
X99540000Y-82099813D01*
X99516310Y-82090000D01*
X94013690Y-82090000D01*
X93780301Y-82186673D01*
X93601673Y-82365302D01*
X93505000Y-82598691D01*
X90492265Y-82598691D01*
X90701441Y-82464090D01*
X90846431Y-82251890D01*
X90897440Y-82000000D01*
X90897440Y-78000000D01*
X90853162Y-77764683D01*
X90714090Y-77548559D01*
X90501890Y-77403569D01*
X90250000Y-77352560D01*
X89885000Y-77352560D01*
X89885000Y-77294606D01*
X91052606Y-76127000D01*
X95802560Y-76127000D01*
X95802560Y-80575000D01*
M02*
