G04 #@! TF.FileFunction,Copper,L2,Bot,Signal*
%FSLAX46Y46*%
G04 Gerber Fmt 4.6, Leading zero omitted, Abs format (unit mm)*
G04 Created by KiCad (PCBNEW 4.0.6) date 10/21/18 17:35:00*
%MOMM*%
%LPD*%
G01*
G04 APERTURE LIST*
%ADD10C,0.100000*%
%ADD11C,6.400000*%
%ADD12C,2.000000*%
%ADD13R,1.700000X1.700000*%
%ADD14O,1.700000X1.700000*%
%ADD15C,1.500000*%
%ADD16C,1.524000*%
%ADD17C,0.600000*%
%ADD18C,0.500000*%
%ADD19C,0.250000*%
%ADD20C,1.000000*%
%ADD21C,0.254000*%
G04 APERTURE END LIST*
D10*
D11*
X116000000Y-96000000D03*
X84000000Y-96000000D03*
X116000000Y-24000000D03*
D12*
X116000000Y-40000000D03*
X116000000Y-36500000D03*
X116000000Y-33000000D03*
D13*
X82000000Y-42540000D03*
D14*
X82000000Y-40000000D03*
X82000000Y-37460000D03*
X82000000Y-34920000D03*
X82000000Y-32380000D03*
D13*
X94050000Y-68090000D03*
D14*
X94050000Y-65550000D03*
X94050000Y-63010000D03*
X94050000Y-60470000D03*
D13*
X118000000Y-50000000D03*
D14*
X118000000Y-52540000D03*
X118000000Y-55080000D03*
X118000000Y-57620000D03*
X118000000Y-60160000D03*
X118000000Y-62700000D03*
X118000000Y-65240000D03*
X118000000Y-67780000D03*
X118000000Y-70320000D03*
X118000000Y-72860000D03*
X118000000Y-75400000D03*
X118000000Y-77940000D03*
X118000000Y-80480000D03*
X118000000Y-83020000D03*
X118000000Y-85560000D03*
X118000000Y-88100000D03*
D13*
X82000000Y-50000000D03*
D14*
X82000000Y-52540000D03*
X82000000Y-55080000D03*
X82000000Y-57620000D03*
X82000000Y-60160000D03*
X82000000Y-62700000D03*
X82000000Y-65240000D03*
X82000000Y-67780000D03*
X82000000Y-70320000D03*
X82000000Y-72860000D03*
X82000000Y-75400000D03*
X82000000Y-77940000D03*
X82000000Y-80480000D03*
X82000000Y-83020000D03*
X82000000Y-85560000D03*
X82000000Y-88100000D03*
D15*
X90300000Y-21380000D03*
X90300000Y-23920000D03*
X90300000Y-26460000D03*
X90300000Y-29000000D03*
X90300000Y-31540000D03*
X90300000Y-34080000D03*
D16*
X90300000Y-36620000D03*
X97920000Y-36620000D03*
X90300000Y-39160000D03*
X97920000Y-39160000D03*
X90300000Y-41700000D03*
X97920000Y-41700000D03*
X90300000Y-44240000D03*
X97920000Y-44240000D03*
X90300000Y-46780000D03*
X97920000Y-46780000D03*
X90300000Y-49320000D03*
X97920000Y-49320000D03*
X90300000Y-51860000D03*
X97920000Y-51860000D03*
X90300000Y-54400000D03*
X92840000Y-54400000D03*
X95380000Y-54400000D03*
X97920000Y-54400000D03*
X100460000Y-54400000D03*
X103000000Y-54400000D03*
X105540000Y-54400000D03*
X100460000Y-51860000D03*
X105540000Y-51860000D03*
X100460000Y-49320000D03*
X105540000Y-49320000D03*
X100460000Y-46780000D03*
X105540000Y-46780000D03*
X100460000Y-44240000D03*
X105540000Y-44240000D03*
X100460000Y-41700000D03*
X105540000Y-41700000D03*
X100460000Y-39160000D03*
X105540000Y-39160000D03*
X100460000Y-36620000D03*
X105540000Y-36620000D03*
X103000000Y-34080000D03*
X105540000Y-34080000D03*
X103000000Y-31540000D03*
X105540000Y-31540000D03*
X103000000Y-29000000D03*
X105540000Y-29000000D03*
X105540000Y-26460000D03*
X105540000Y-23920000D03*
X105540000Y-21380000D03*
D11*
X84000000Y-24000000D03*
D13*
X103460000Y-64100000D03*
D14*
X106000000Y-64100000D03*
X108540000Y-64100000D03*
D17*
X105400000Y-59200000D03*
X94000000Y-90000000D03*
X105000000Y-85000000D03*
X105000000Y-86000000D03*
X105000000Y-87000000D03*
X105000000Y-88000000D03*
X105000000Y-89000000D03*
X105000000Y-90000000D03*
X105000000Y-91000000D03*
X105000000Y-92000000D03*
X104000000Y-92000000D03*
X103000000Y-92000000D03*
X102000000Y-92000000D03*
X101000000Y-92000000D03*
X100000000Y-92000000D03*
X99000000Y-92000000D03*
X98000000Y-92000000D03*
X97000000Y-92000000D03*
X96000000Y-92000000D03*
X95000000Y-92000000D03*
X94000000Y-92000000D03*
X94000000Y-91000000D03*
X94000000Y-89000000D03*
X94000000Y-88000000D03*
X94000000Y-87000000D03*
X94000000Y-86000000D03*
X94000000Y-85000000D03*
X112100000Y-38850000D03*
X96200000Y-61800000D03*
X98500000Y-64100000D03*
X113400000Y-83000000D03*
X104290000Y-32750000D03*
D18*
X94050000Y-60470000D02*
X104130000Y-60470000D01*
X104130000Y-60470000D02*
X105400000Y-59200000D01*
X105540000Y-23920000D02*
X106301999Y-24681999D01*
X118400000Y-32200000D02*
X118400000Y-37600000D01*
X106301999Y-24681999D02*
X109381999Y-24681999D01*
X109381999Y-24681999D02*
X114800000Y-30100000D01*
X114800000Y-30100000D02*
X116300000Y-30100000D01*
X116300000Y-30100000D02*
X118400000Y-32200000D01*
X118400000Y-37600000D02*
X116000000Y-40000000D01*
D19*
X105000000Y-86000000D02*
X105000000Y-85000000D01*
X103000000Y-92000000D02*
X104000000Y-92000000D01*
X101000000Y-92000000D02*
X102000000Y-92000000D01*
X99000000Y-92000000D02*
X100000000Y-92000000D01*
X97000000Y-92000000D02*
X98000000Y-92000000D01*
X95000000Y-36240000D02*
X95000000Y-26080000D01*
X95000000Y-26080000D02*
X90300000Y-21380000D01*
X97920000Y-39160000D02*
X95000000Y-36240000D01*
D18*
X112399999Y-38550001D02*
X112100000Y-38850000D01*
X116000000Y-36500000D02*
X114450000Y-36500000D01*
X114450000Y-36500000D02*
X112399999Y-38550001D01*
D19*
X95500000Y-64100000D02*
X96200000Y-64100000D01*
X96200000Y-64100000D02*
X98075736Y-64100000D01*
X96200000Y-61800000D02*
X96200000Y-64100000D01*
X98075736Y-64100000D02*
X98500000Y-64100000D01*
X94050000Y-65550000D02*
X95500000Y-64100000D01*
D20*
X113400000Y-83000000D02*
X112400000Y-82000000D01*
X112400000Y-82000000D02*
X87000000Y-82000000D01*
X87000000Y-82000000D02*
X83440000Y-85560000D01*
X83440000Y-85560000D02*
X82000000Y-85560000D01*
X113400000Y-83000000D02*
X113400000Y-83400000D01*
X113400000Y-83400000D02*
X116000000Y-86000000D01*
X116000000Y-86000000D02*
X116000000Y-87250000D01*
X116000000Y-87250000D02*
X116850000Y-88100000D01*
X116850000Y-88100000D02*
X118000000Y-88100000D01*
D19*
X90300000Y-54400000D02*
X86200000Y-50300000D01*
X86200000Y-50300000D02*
X86200000Y-39950000D01*
X86200000Y-39950000D02*
X83710000Y-37460000D01*
X83710000Y-37460000D02*
X82000000Y-37460000D01*
X90300000Y-51860000D02*
X86650011Y-48210011D01*
X86650011Y-48210011D02*
X86650011Y-37900011D01*
X86650011Y-37900011D02*
X83670000Y-34920000D01*
X83670000Y-34920000D02*
X82000000Y-34920000D01*
X82000000Y-40000000D02*
X83800000Y-40000000D01*
X83800000Y-40000000D02*
X85650000Y-41850000D01*
X89000000Y-56550000D02*
X103390000Y-56550000D01*
X85650000Y-41850000D02*
X85650000Y-53200000D01*
X103390000Y-56550000D02*
X105540000Y-54400000D01*
X85650000Y-53200000D02*
X89000000Y-56550000D01*
X82000000Y-32380000D02*
X83580000Y-32380000D01*
X87200000Y-36000000D02*
X87200000Y-46220000D01*
X83580000Y-32380000D02*
X87200000Y-36000000D01*
X87200000Y-46220000D02*
X90300000Y-49320000D01*
X103000000Y-34080000D02*
X101600000Y-32680000D01*
X108300000Y-27740000D02*
X110840000Y-30280000D01*
X110840000Y-46680000D02*
X116700000Y-52540000D01*
X101600000Y-32680000D02*
X101600000Y-28440000D01*
X101600000Y-28440000D02*
X102300000Y-27740000D01*
X102300000Y-27740000D02*
X108300000Y-27740000D01*
X110840000Y-30280000D02*
X110840000Y-46680000D01*
X116700000Y-52540000D02*
X118000000Y-52540000D01*
X117610000Y-52150000D02*
X118000000Y-52540000D01*
X103000000Y-31540000D02*
X104290000Y-30250000D01*
X104290000Y-30250000D02*
X107150000Y-30250000D01*
X107150000Y-30250000D02*
X110350022Y-33450022D01*
X110350022Y-33450022D02*
X110350022Y-46968735D01*
X110350022Y-46968735D02*
X114050055Y-50668768D01*
X114050055Y-50668768D02*
X114050055Y-52110055D01*
X114050055Y-52110055D02*
X117030000Y-55090000D01*
X117030000Y-55090000D02*
X117990000Y-55090000D01*
X117990000Y-55090000D02*
X118000000Y-55080000D01*
X117150001Y-56770001D02*
X118000000Y-57620000D01*
X105540000Y-31540000D02*
X106617630Y-31540000D01*
X109870011Y-34792381D02*
X109870011Y-47125135D01*
X113600044Y-53220044D02*
X117150001Y-56770001D01*
X113600044Y-50855168D02*
X113600044Y-53220044D01*
X109870011Y-47125135D02*
X113600044Y-50855168D01*
X106617630Y-31540000D02*
X109870011Y-34792381D01*
X116824999Y-57444999D02*
X113030000Y-53650000D01*
X104714264Y-32750000D02*
X104290000Y-32750000D01*
X118000000Y-60160000D02*
X116824999Y-58984999D01*
X116824999Y-58984999D02*
X116824999Y-57444999D01*
X109330000Y-47221535D02*
X109330000Y-35280000D01*
X113030000Y-53650000D02*
X113030000Y-50921534D01*
X106800000Y-32750000D02*
X104714264Y-32750000D01*
X113030000Y-50921534D02*
X109330000Y-47221535D01*
X109330000Y-35280000D02*
X106800000Y-32750000D01*
X112129978Y-51294334D02*
X108429978Y-47594335D01*
X118000000Y-65240000D02*
X115250077Y-62490077D01*
X108429978Y-39509978D02*
X106301999Y-37381999D01*
X115250077Y-57632899D02*
X112129978Y-54512800D01*
X106301999Y-37381999D02*
X105540000Y-36620000D01*
X115250077Y-62490077D02*
X115250077Y-57632899D01*
X108429978Y-47594335D02*
X108429978Y-39509978D01*
X112129978Y-54512800D02*
X112129978Y-51294334D01*
X107979967Y-41599967D02*
X107979967Y-47780735D01*
X114800066Y-64580066D02*
X117150001Y-66930001D01*
X114800066Y-57819299D02*
X114800066Y-64580066D01*
X111679967Y-51480734D02*
X111679967Y-54699200D01*
X105540000Y-39160000D02*
X107979967Y-41599967D01*
X107979967Y-47780735D02*
X111679967Y-51480734D01*
X117150001Y-66930001D02*
X118000000Y-67780000D01*
X111679967Y-54699200D02*
X114800066Y-57819299D01*
X114350055Y-66670055D02*
X117150001Y-69470001D01*
X111229956Y-51667134D02*
X111229956Y-54885600D01*
X111229956Y-54885600D02*
X114350055Y-58005699D01*
X107529956Y-47967135D02*
X111229956Y-51667134D01*
X105540000Y-41700000D02*
X107529956Y-43689956D01*
X117150001Y-69470001D02*
X118000000Y-70320000D01*
X114350055Y-58005699D02*
X114350055Y-66670055D01*
X107529956Y-43689956D02*
X107529956Y-47967135D01*
X113900044Y-68760044D02*
X117150001Y-72010001D01*
X110779945Y-51853534D02*
X110779945Y-55072000D01*
X107079945Y-45779945D02*
X107079945Y-48153535D01*
X105540000Y-44240000D02*
X107079945Y-45779945D01*
X117150001Y-72010001D02*
X118000000Y-72860000D01*
X107079945Y-48153535D02*
X110779945Y-51853534D01*
X110779945Y-55072000D02*
X113900044Y-58192099D01*
X113900044Y-58192099D02*
X113900044Y-68760044D01*
X105540000Y-46780000D02*
X106600000Y-47840000D01*
X106600000Y-47840000D02*
X106600000Y-48310000D01*
X106600000Y-48310000D02*
X110329934Y-52039934D01*
X110329934Y-52039934D02*
X110329934Y-55258400D01*
X110329934Y-55258400D02*
X113450033Y-58378499D01*
X113450033Y-58378499D02*
X113450033Y-70850033D01*
X113450033Y-70850033D02*
X117150001Y-74550001D01*
X117150001Y-74550001D02*
X118000000Y-75400000D01*
X113000022Y-72940022D02*
X117150001Y-77090001D01*
X109879923Y-55444800D02*
X113000022Y-58564899D01*
X113000022Y-58564899D02*
X113000022Y-72940022D01*
X117150001Y-77090001D02*
X118000000Y-77940000D01*
X109879923Y-53659923D02*
X109879923Y-55444800D01*
X105540000Y-49320000D02*
X109879923Y-53659923D01*
X106420711Y-52621999D02*
X106301999Y-52621999D01*
X106301999Y-52621999D02*
X105540000Y-51860000D01*
X118000000Y-80480000D02*
X110239912Y-72719912D01*
X110239912Y-56441200D02*
X106420711Y-52621999D01*
X110239912Y-72719912D02*
X110239912Y-56441200D01*
X104870000Y-53120000D02*
X104150000Y-52400000D01*
X101221999Y-42461999D02*
X100460000Y-41700000D01*
X106282301Y-53120000D02*
X104870000Y-53120000D01*
X109789901Y-74809901D02*
X109789901Y-56627600D01*
X104150000Y-52400000D02*
X104150000Y-45390000D01*
X104150000Y-45390000D02*
X101221999Y-42461999D01*
X118000000Y-83020000D02*
X109789901Y-74809901D01*
X109789901Y-56627600D02*
X106282301Y-53120000D01*
X112579989Y-54326400D02*
X115700088Y-57446499D01*
X115700088Y-60400088D02*
X117150001Y-61850001D01*
X115700088Y-57446499D02*
X115700088Y-60400088D01*
X112579989Y-51107934D02*
X112579989Y-54326400D01*
X105540000Y-34080000D02*
X108879989Y-37419989D01*
X117150001Y-61850001D02*
X118000000Y-62700000D01*
X108879989Y-47407935D02*
X112579989Y-51107934D01*
X108879989Y-37419989D02*
X108879989Y-47407935D01*
D21*
G36*
X114865000Y-87044606D02*
X114865000Y-87250000D01*
X114873000Y-87290219D01*
X114873000Y-92316191D01*
X113830485Y-92746950D01*
X112750741Y-93824811D01*
X112165667Y-95233825D01*
X112164336Y-96759482D01*
X112746950Y-98169515D01*
X113449208Y-98873000D01*
X86550229Y-98873000D01*
X87249259Y-98175189D01*
X87834333Y-96766175D01*
X87835664Y-95240518D01*
X87253050Y-93830485D01*
X86175189Y-92750741D01*
X84766175Y-92165667D01*
X84127000Y-92165109D01*
X84127000Y-87052606D01*
X87052606Y-84127000D01*
X111947394Y-84127000D01*
X114865000Y-87044606D01*
X114865000Y-87044606D01*
G37*
X114865000Y-87044606D02*
X114865000Y-87250000D01*
X114873000Y-87290219D01*
X114873000Y-92316191D01*
X113830485Y-92746950D01*
X112750741Y-93824811D01*
X112165667Y-95233825D01*
X112164336Y-96759482D01*
X112746950Y-98169515D01*
X113449208Y-98873000D01*
X86550229Y-98873000D01*
X87249259Y-98175189D01*
X87834333Y-96766175D01*
X87835664Y-95240518D01*
X87253050Y-93830485D01*
X86175189Y-92750741D01*
X84766175Y-92165667D01*
X84127000Y-92165109D01*
X84127000Y-87052606D01*
X87052606Y-84127000D01*
X111947394Y-84127000D01*
X114865000Y-87044606D01*
M02*
