G04 #@! TF.FileFunction,Soldermask,Bot*
%FSLAX46Y46*%
G04 Gerber Fmt 4.6, Leading zero omitted, Abs format (unit mm)*
G04 Created by KiCad (PCBNEW 4.0.6) date 10/21/18 17:35:00*
%MOMM*%
%LPD*%
G01*
G04 APERTURE LIST*
%ADD10C,0.100000*%
%ADD11C,6.800000*%
%ADD12C,2.400000*%
%ADD13R,2.100000X2.100000*%
%ADD14O,2.100000X2.100000*%
%ADD15C,1.900000*%
%ADD16C,1.924000*%
G04 APERTURE END LIST*
D10*
D11*
X116000000Y-96000000D03*
X84000000Y-96000000D03*
X116000000Y-24000000D03*
D12*
X116000000Y-40000000D03*
X116000000Y-36500000D03*
X116000000Y-33000000D03*
D13*
X82000000Y-42540000D03*
D14*
X82000000Y-40000000D03*
X82000000Y-37460000D03*
X82000000Y-34920000D03*
X82000000Y-32380000D03*
D13*
X94050000Y-68090000D03*
D14*
X94050000Y-65550000D03*
X94050000Y-63010000D03*
X94050000Y-60470000D03*
D13*
X118000000Y-50000000D03*
D14*
X118000000Y-52540000D03*
X118000000Y-55080000D03*
X118000000Y-57620000D03*
X118000000Y-60160000D03*
X118000000Y-62700000D03*
X118000000Y-65240000D03*
X118000000Y-67780000D03*
X118000000Y-70320000D03*
X118000000Y-72860000D03*
X118000000Y-75400000D03*
X118000000Y-77940000D03*
X118000000Y-80480000D03*
X118000000Y-83020000D03*
X118000000Y-85560000D03*
X118000000Y-88100000D03*
D13*
X82000000Y-50000000D03*
D14*
X82000000Y-52540000D03*
X82000000Y-55080000D03*
X82000000Y-57620000D03*
X82000000Y-60160000D03*
X82000000Y-62700000D03*
X82000000Y-65240000D03*
X82000000Y-67780000D03*
X82000000Y-70320000D03*
X82000000Y-72860000D03*
X82000000Y-75400000D03*
X82000000Y-77940000D03*
X82000000Y-80480000D03*
X82000000Y-83020000D03*
X82000000Y-85560000D03*
X82000000Y-88100000D03*
D15*
X90300000Y-21380000D03*
X90300000Y-23920000D03*
X90300000Y-26460000D03*
X90300000Y-29000000D03*
X90300000Y-31540000D03*
X90300000Y-34080000D03*
D16*
X90300000Y-36620000D03*
X97920000Y-36620000D03*
X90300000Y-39160000D03*
X97920000Y-39160000D03*
X90300000Y-41700000D03*
X97920000Y-41700000D03*
X90300000Y-44240000D03*
X97920000Y-44240000D03*
X90300000Y-46780000D03*
X97920000Y-46780000D03*
X90300000Y-49320000D03*
X97920000Y-49320000D03*
X90300000Y-51860000D03*
X97920000Y-51860000D03*
X90300000Y-54400000D03*
X92840000Y-54400000D03*
X95380000Y-54400000D03*
X97920000Y-54400000D03*
X100460000Y-54400000D03*
X103000000Y-54400000D03*
X105540000Y-54400000D03*
X100460000Y-51860000D03*
X105540000Y-51860000D03*
X100460000Y-49320000D03*
X105540000Y-49320000D03*
X100460000Y-46780000D03*
X105540000Y-46780000D03*
X100460000Y-44240000D03*
X105540000Y-44240000D03*
X100460000Y-41700000D03*
X105540000Y-41700000D03*
X100460000Y-39160000D03*
X105540000Y-39160000D03*
X100460000Y-36620000D03*
X105540000Y-36620000D03*
X103000000Y-34080000D03*
X105540000Y-34080000D03*
X103000000Y-31540000D03*
X105540000Y-31540000D03*
X103000000Y-29000000D03*
X105540000Y-29000000D03*
X105540000Y-26460000D03*
X105540000Y-23920000D03*
X105540000Y-21380000D03*
D11*
X84000000Y-24000000D03*
D13*
X103460000Y-64100000D03*
D14*
X106000000Y-64100000D03*
X108540000Y-64100000D03*
M02*
