M48
;DRILL file {KiCad 4.0.6} date 10/21/18 17:35:02
;FORMAT={-:-/ absolute / metric / decimal}
FMAT,2
METRIC,TZ
T1C0.400
T2C0.762
T3C0.900
T4C1.000
T5C3.200
%
G90
G05
M71
T1
X94.Y-85.
X94.Y-86.
X94.Y-87.
X94.Y-88.
X94.Y-89.
X94.Y-90.
X94.Y-91.
X94.Y-92.
X95.Y-92.
X96.Y-92.
X96.2Y-61.8
X97.Y-92.
X98.Y-92.
X98.5Y-64.1
X99.Y-92.
X100.Y-92.
X101.Y-92.
X102.Y-92.
X103.Y-92.
X104.Y-92.
X104.29Y-32.75
X105.Y-85.
X105.Y-86.
X105.Y-87.
X105.Y-88.
X105.Y-89.
X105.Y-90.
X105.Y-91.
X105.Y-92.
X105.4Y-59.2
X112.1Y-38.85
X113.4Y-83.
T2
X90.3Y-36.62
X90.3Y-39.16
X90.3Y-41.7
X90.3Y-44.24
X90.3Y-46.78
X90.3Y-49.32
X90.3Y-51.86
X90.3Y-54.4
X92.84Y-54.4
X95.38Y-54.4
X97.92Y-36.62
X97.92Y-39.16
X97.92Y-41.7
X97.92Y-44.24
X97.92Y-46.78
X97.92Y-49.32
X97.92Y-51.86
X97.92Y-54.4
X100.46Y-36.62
X100.46Y-39.16
X100.46Y-41.7
X100.46Y-44.24
X100.46Y-46.78
X100.46Y-49.32
X100.46Y-51.86
X100.46Y-54.4
X103.Y-29.
X103.Y-31.54
X103.Y-34.08
X103.Y-54.4
X105.54Y-21.38
X105.54Y-23.92
X105.54Y-26.46
X105.54Y-29.
X105.54Y-31.54
X105.54Y-34.08
X105.54Y-36.62
X105.54Y-39.16
X105.54Y-41.7
X105.54Y-44.24
X105.54Y-46.78
X105.54Y-49.32
X105.54Y-51.86
X105.54Y-54.4
T3
X90.3Y-21.38
X90.3Y-23.92
X90.3Y-26.46
X90.3Y-29.
X90.3Y-31.54
X90.3Y-34.08
T4
X82.Y-32.38
X82.Y-34.92
X82.Y-37.46
X82.Y-40.
X82.Y-42.54
X82.Y-50.
X82.Y-52.54
X82.Y-55.08
X82.Y-57.62
X82.Y-60.16
X82.Y-62.7
X82.Y-65.24
X82.Y-67.78
X82.Y-70.32
X82.Y-72.86
X82.Y-75.4
X82.Y-77.94
X82.Y-80.48
X82.Y-83.02
X82.Y-85.56
X82.Y-88.1
X94.05Y-60.47
X94.05Y-63.01
X94.05Y-65.55
X94.05Y-68.09
X103.46Y-64.1
X106.Y-64.1
X108.54Y-64.1
X116.Y-33.
X116.Y-36.5
X116.Y-40.
X118.Y-50.
X118.Y-52.54
X118.Y-55.08
X118.Y-57.62
X118.Y-60.16
X118.Y-62.7
X118.Y-65.24
X118.Y-67.78
X118.Y-70.32
X118.Y-72.86
X118.Y-75.4
X118.Y-77.94
X118.Y-80.48
X118.Y-83.02
X118.Y-85.56
X118.Y-88.1
T5
X84.Y-24.
X84.Y-96.
X116.Y-24.
X116.Y-96.
T0
M30
